<svg xmlns="http://www.w3.org/2000/svg" viewBox="0 0 261.77 64.7"><defs><style>.cls-1{fill:#fff;}.cls-2{fill:#e8ae6f;}</style></defs><g id="Camada_2" data-name="Camada 2"><g id="Camada_1-2" data-name="Camada 1"><path class="cls-1" d="M24.61,22.2V34.87A1.92,1.92,0,0,0,25,36.15a2.82,2.82,0,0,0,1.36.71v.87H14.72v-.87a3,3,0,0,0,1.39-.71,1.82,1.82,0,0,0,.4-1.28V22.2L4.54,5.35A17.61,17.61,0,0,0,2.1,2.43,4,4,0,0,0,0,1.52V.65H14.64v.87c-1.21.2-1.82.76-1.82,1.68a5.84,5.84,0,0,0,1.11,2.15l6.68,9.92,6.88-9.92A5.33,5.33,0,0,0,28.6,3.18a1.4,1.4,0,0,0-.49-1.08,2.55,2.55,0,0,0-1.33-.58V.65H41.12v.87a4,4,0,0,0-2.1.91,17.61,17.61,0,0,0-2.44,2.92Z"/><path class="cls-1" d="M52.88,12.33V34.87a1.9,1.9,0,0,0,.38,1.28,2.77,2.77,0,0,0,1.36.71v.87H43.73v-.87a2.82,2.82,0,0,0,1.36-.71,1.9,1.9,0,0,0,.38-1.28V3.48a1.85,1.85,0,0,0-.38-1.25,2.82,2.82,0,0,0-1.36-.71V.65h12.6v.87c-.78.2-1.17.62-1.17,1.25a2.24,2.24,0,0,0,.76,1.44L76.37,25.48v-22A1.8,1.8,0,0,0,76,2.23a2.73,2.73,0,0,0-1.35-.71V.65H85.53v.87a2.77,2.77,0,0,0-1.36.71,1.85,1.85,0,0,0-.38,1.25V34.87a1.9,1.9,0,0,0,.38,1.28,2.77,2.77,0,0,0,1.36.71v.87H73.85v-.87Q75,36.6,75,35.69c0-.36-.44-1-1.33-1.9Z"/><path class="cls-1" d="M125.24,18.31q6.24,2.36,6.24,8.74a9.57,9.57,0,0,1-3.64,8,11.74,11.74,0,0,1-4.27,2.08,24.44,24.44,0,0,1-6,.64H92.21v-.87a2.82,2.82,0,0,0,1.36-.71A1.9,1.9,0,0,0,94,34.87V3.5a1.89,1.89,0,0,0-.38-1.27,2.82,2.82,0,0,0-1.36-.71V.65h25.1a24.66,24.66,0,0,1,5.81.55A10,10,0,0,1,127,3a8.9,8.9,0,0,1,3.29,7.44A8.1,8.1,0,0,1,125.24,18.31ZM102,15.4h14.21c2.15,0,3.65-.32,4.5-1a4,4,0,0,0,1.44-3.37,3.87,3.87,0,0,0-1.35-3.33,8,8,0,0,0-4.59-1H102Zm0,16.21h13.74c2.56,0,4.39-.35,5.52-1.05a4.39,4.39,0,0,0,1.93-4,4.41,4.41,0,0,0-1.93-4c-1.11-.71-2.94-1.06-5.52-1.06H102Z"/><path class="cls-1" d="M146.88,22.6V34.9a1.8,1.8,0,0,0,.4,1.26,2.67,2.67,0,0,0,1.34.7v.87H137.05v-.87a2.82,2.82,0,0,0,1.36-.71,1.87,1.87,0,0,0,.38-1.25V3.5a1.89,1.89,0,0,0-.38-1.27,2.82,2.82,0,0,0-1.36-.71V.65h23.2a37,37,0,0,1,6.72.49,12.12,12.12,0,0,1,4.33,1.71,8.57,8.57,0,0,1,3.2,3.83,12.51,12.51,0,0,1,1,5q0,9.08-10.08,10.62l7.2,10.24A24.08,24.08,0,0,0,175.41,36a3.54,3.54,0,0,0,2.16.86v.87H164.18v-.87c.92-.15,1.38-.47,1.38-1a6.85,6.85,0,0,0-1.27-2.36L156.78,22.6Zm0-6.11h12.5a31.21,31.21,0,0,0,3.91-.17,5.91,5.91,0,0,0,2.09-.68,4.16,4.16,0,0,0,2.06-4,4.19,4.19,0,0,0-2.06-4,5.94,5.94,0,0,0-2.08-.69,34,34,0,0,0-3.92-.15h-12.5Z"/><path class="cls-1" d="M209.19,28.27H192.34l-2.5,5.22a4.4,4.4,0,0,0-.52,1.71c0,.8.61,1.35,1.82,1.66v.87H178.88v-.87a3.34,3.34,0,0,0,1.65-.76A7.61,7.61,0,0,0,181.84,34L195.47,5.49a5.34,5.34,0,0,0,.65-2.18c0-.83-.52-1.43-1.57-1.79V.65h13.14v.87c-1.06.31-1.6.84-1.6,1.6a4,4,0,0,0,.52,1.8l14.12,28.57A9.47,9.47,0,0,0,222.31,36a3.44,3.44,0,0,0,1.82.89v.87H210.48v-.87c1.2-.2,1.8-.76,1.8-1.69a4.23,4.23,0,0,0-.55-1.68Zm-2.33-5.08-6-13.2-6.1,13.2Z"/><path class="cls-1" d="M261.77,3.79l-4.43,8.73-.76-.43a4.21,4.21,0,0,0,0-.44c0-.61-.53-1.27-1.58-2A19.3,19.3,0,0,0,243.68,6.3,16.67,16.67,0,0,0,238.6,7,6,6,0,0,0,236,8.63,3.45,3.45,0,0,0,235,11q0,2.1,2.52,2.85a38.52,38.52,0,0,0,5.6.82l4.26.43a34.74,34.74,0,0,1,6.15,1.11,14.63,14.63,0,0,1,4.17,2,9.2,9.2,0,0,1,2.92,3.5,10.24,10.24,0,0,1,1.08,4.64,10.61,10.61,0,0,1-2.53,7,13.54,13.54,0,0,1-7.09,4.09,28.36,28.36,0,0,1-7.69,1,32.65,32.65,0,0,1-14.53-3.53,7.78,7.78,0,0,0-1.82-.71,2.31,2.31,0,0,0-1.11.6l-.79-.41,4-9.1.79.38V26a3,3,0,0,0,1.17,2.25,14.7,14.7,0,0,0,5.46,2.72,23.77,23.77,0,0,0,7,1.14,14.26,14.26,0,0,0,6.17-1.22A6.07,6.07,0,0,0,253,29.05a3.81,3.81,0,0,0,.85-2.34,2.71,2.71,0,0,0-2-2.63,25.88,25.88,0,0,0-5.59-1l-4.18-.44a55.43,55.43,0,0,1-6-.83,15.22,15.22,0,0,1-3.48-1.26,9,9,0,0,1-3.88-3.67,9.91,9.91,0,0,1-1.28-5.06,10.28,10.28,0,0,1,3.23-7.77Q235,0,243.46,0a29,29,0,0,1,6.63.72,51.07,51.07,0,0,1,7.66,2.66,8.3,8.3,0,0,0,1.93.63A2.24,2.24,0,0,0,261,3.38Z"/><path class="cls-2" d="M37.58,64.54l0-10.8L32.2,62.68H30.85l-5.35-8.8V64.54H22.61V48.25h2.5l6.47,10.8,6.35-10.8h2.49l0,16.29Z"/><path class="cls-2" d="M55,57.26v7.28H52.22V63a4.41,4.41,0,0,1-3.91,1.67c-2.84,0-4.63-1.56-4.63-3.72s1.4-3.7,5.17-3.7h3.21v-.19c0-1.7-1-2.7-3.1-2.7a6.16,6.16,0,0,0-3.77,1.24l-1.14-2.12A8.71,8.71,0,0,1,49.31,52C52.9,52,55,53.67,55,57.26Zm-2.91,3.39V59.21h-3c-2,0-2.52.75-2.52,1.65s.89,1.73,2.38,1.73A3.17,3.17,0,0,0,52.06,60.65Z"/><path class="cls-2" d="M65.89,52v2.77a3.49,3.49,0,0,0-.68-.07C63,54.67,61.6,56,61.6,58.51v6H58.69V52.11h2.77v1.82C62.3,52.62,63.81,52,65.89,52Z"/><path class="cls-2" d="M67.21,58.33C67.21,54.6,70,52,73.94,52a5.6,5.6,0,0,1,5.31,2.89L77,56.16a3.5,3.5,0,0,0-3.09-1.72,3.89,3.89,0,0,0,0,7.77A3.5,3.5,0,0,0,77,60.49l2.24,1.3a5.65,5.65,0,0,1-5.31,2.91C70,64.7,67.21,62.05,67.21,58.33Z"/><path class="cls-2" d="M92.16,57.26v7.28H89.42V63a4.41,4.41,0,0,1-3.91,1.67c-2.84,0-4.63-1.56-4.63-3.72s1.39-3.7,5.16-3.7h3.22v-.19c0-1.7-1-2.7-3.1-2.7a6.13,6.13,0,0,0-3.77,1.24l-1.14-2.12A8.71,8.71,0,0,1,86.51,52C90.09,52,92.16,53.67,92.16,57.26Zm-2.9,3.39V59.21h-3c-2,0-2.51.75-2.51,1.65s.88,1.73,2.37,1.73A3.19,3.19,0,0,0,89.26,60.65Z"/><path class="cls-2" d="M94.47,63.31l1.12-2.21a8.37,8.37,0,0,0,4.33,1.23c1.83,0,2.6-.51,2.6-1.37,0-2.38-7.68-.14-7.68-5.1,0-2.35,2.12-3.89,5.47-3.89A10,10,0,0,1,105,53l-1.12,2.21a6.88,6.88,0,0,0-3.56-.93c-1.77,0-2.61.58-2.61,1.4,0,2.51,7.68.28,7.68,5.14,0,2.33-2.14,3.84-5.63,3.84A9.9,9.9,0,0,1,94.47,63.31Z"/><path class="cls-2" d="M125.94,59.26h-9.75a3.76,3.76,0,0,0,4,3,4.5,4.5,0,0,0,3.38-1.35l1.56,1.79a6.3,6.3,0,0,1-5,2c-4.16,0-6.86-2.67-6.86-6.37A6.18,6.18,0,0,1,119.7,52,6.06,6.06,0,0,1,126,58.4C126,58.63,126,59,125.94,59.26Zm-9.78-1.93h7.06a3.39,3.39,0,0,0-3.52-3A3.44,3.44,0,0,0,116.16,57.33Z"/><path class="cls-2" d="M149.12,54c0,3.59-2.65,5.8-6.93,5.8h-3.68v4.7h-3V48.25h6.71C146.47,48.25,149.12,50.44,149.12,54Zm-3.05,0c0-2-1.37-3.23-4-3.23h-3.54v6.47h3.54C144.7,57.28,146.07,56.09,146.07,54Z"/><path class="cls-2" d="M162.16,57.26v7.28h-2.75V63a4.41,4.41,0,0,1-3.91,1.67c-2.84,0-4.63-1.56-4.63-3.72s1.39-3.7,5.16-3.7h3.22v-.19c0-1.7-1-2.7-3.1-2.7a6.13,6.13,0,0,0-3.77,1.24l-1.14-2.12A8.71,8.71,0,0,1,156.5,52C160.08,52,162.16,53.67,162.16,57.26Zm-2.91,3.39V59.21h-3c-2,0-2.51.75-2.51,1.65s.89,1.73,2.37,1.73A3.19,3.19,0,0,0,159.25,60.65Z"/><path class="cls-2" d="M173.35,63.87a4.61,4.61,0,0,1-2.79.83c-2.72,0-4.28-1.44-4.28-4.19v-6h-2.05V52.2h2.05V49.37h2.91V52.2h3.32v2.33h-3.32v5.91c0,1.21.6,1.87,1.72,1.87a2.62,2.62,0,0,0,1.63-.52Z"/><path class="cls-2" d="M187,59.26h-9.75a3.76,3.76,0,0,0,4,3,4.5,4.5,0,0,0,3.38-1.35l1.56,1.79a6.3,6.3,0,0,1-5,2c-4.16,0-6.86-2.67-6.86-6.37A6.18,6.18,0,0,1,180.73,52,6.07,6.07,0,0,1,187,58.4C187,58.63,187,59,187,59.26Zm-9.78-1.93h7.06a3.39,3.39,0,0,0-3.52-3A3.44,3.44,0,0,0,177.19,57.33Z"/><path class="cls-2" d="M202.05,57.42v7.12h-2.91V57.79c0-2.21-1.09-3.28-2.95-3.28-2.07,0-3.47,1.26-3.47,3.75v6.28h-2.91V52.11h2.77v1.61A5.4,5.4,0,0,1,196.86,52C199.84,52,202.05,53.67,202.05,57.42Z"/><path class="cls-2" d="M213.23,63.87a4.64,4.64,0,0,1-2.8.83c-2.72,0-4.28-1.44-4.28-4.19v-6H204.1V52.2h2.05V49.37h2.91V52.2h3.33v2.33h-3.33v5.91c0,1.21.6,1.87,1.72,1.87a2.6,2.6,0,0,0,1.63-.52Z"/><path class="cls-2" d="M226.84,59.26h-9.75a3.77,3.77,0,0,0,4,3,4.47,4.47,0,0,0,3.37-1.35l1.56,1.79a6.28,6.28,0,0,1-5,2c-4.17,0-6.87-2.67-6.87-6.37A6.18,6.18,0,0,1,220.6,52a6.07,6.07,0,0,1,6.29,6.43C226.89,58.63,226.86,59,226.84,59.26Zm-9.77-1.93h7.05a3.38,3.38,0,0,0-3.52-3A3.43,3.43,0,0,0,217.07,57.33Z"/><path class="cls-2" d="M228.26,63.31l1.12-2.21a8.37,8.37,0,0,0,4.33,1.23c1.84,0,2.61-.51,2.61-1.37,0-2.38-7.69-.14-7.69-5.1,0-2.35,2.12-3.89,5.47-3.89A10,10,0,0,1,238.76,53l-1.12,2.21a6.85,6.85,0,0,0-3.56-.93c-1.77,0-2.61.58-2.61,1.4,0,2.51,7.68.28,7.68,5.14,0,2.33-2.14,3.84-5.63,3.84A9.9,9.9,0,0,1,228.26,63.31Z"/></g></g></svg>